<svg xmlns="http://www.w3.org/2000/svg" width="81.086" height="81.087" viewBox="0 0 81.086 81.087">
  <path id="Path_5" data-name="Path 5" d="M-538.006,456.875a40.544,40.544,0,0,0-40.547,40.543,40.544,40.544,0,0,0,40.547,40.544,40.547,40.547,0,0,0,40.539-40.544A40.546,40.546,0,0,0-538.006,456.875Zm0,77.015a36.517,36.517,0,0,1-36.478-36.472,36.519,36.519,0,0,1,36.478-36.471,36.521,36.521,0,0,1,36.468,36.471A36.523,36.523,0,0,1-538.006,533.89Zm2.028-42.48V467.155h-4.068V491.41a6.334,6.334,0,0,0-3.972,3.975h-16.6v4.07h16.6a6.352,6.352,0,0,0,6.012,4.339,6.37,6.37,0,0,0,6.372-6.373A6.351,6.351,0,0,0-535.978,491.41Z" transform="translate(578.553 -456.875)" fill="#333"/>
</svg>
