<svg xmlns="http://www.w3.org/2000/svg" width="84.26" height="64.993" viewBox="0 0 84.26 64.993">
  <g id="Group_1" data-name="Group 1" transform="translate(419.926 -293.922)">
    <path id="Path_1595" data-name="Path 1595" d="M-409.173,358.915a10.776,10.776,0,0,1-10.753-10.756h0V313.57a10.778,10.778,0,0,1,10.753-10.756h39.528v-.821a8.087,8.087,0,0,1,8.073-8.071h17.837v4.069h-17.837a4.039,4.039,0,0,0-4,4h0v2.855a2.035,2.035,0,0,1-.593,1.44h0a2.044,2.044,0,0,1-1.437.6h-41.569a6.724,6.724,0,0,0-6.681,6.685h0v34.589a6.731,6.731,0,0,0,6.681,6.685h62.753a6.733,6.733,0,0,0,6.687-6.685h0V301.993a4.038,4.038,0,0,0-4-4h0v-4.069a8.08,8.08,0,0,1,8.069,8.071h0v46.166a10.776,10.776,0,0,1-10.754,10.756h-62.753Z" fill="#333"/>
  </g>
</svg>
