<svg xmlns="http://www.w3.org/2000/svg" width="33.302" height="48.418" viewBox="0 0 33.302 48.418">
  <path id="Path_1587" data-name="Path 1587" d="M855.8,1961.316v-4.276l.56-.233-.56-1.353v-.2h-.083l-.123-.3-1.553-3.75-.085-.2.43-.43-1.038-1.037-.075-.183-.075.032-.228-.228-2.869-2.87-.153-.151.234-.562-1.357-.563-.14-.14-.058.058-.3-.123-3.752-1.554-.2-.083v-.608h-1.465l-.186-.077-.033.077H838.1l-.233-.563-1.359.563h-.2v.082l-.3.121-3.751,1.555-.2.083-.431-.431-1.04,1.04-.182.076.031.075-.226.227-2.869,2.871-.154.152-.562-.232-.562,1.358-.138.14.057.057-.123.295-1.553,3.751-.083.2h-.608v1.468l-.076.183.076.031v4.6l-.564.232.564,1.358v.2h.083l.122.295,1.555,3.752.082.2-.429.429,1.038,1.039.076.183.075-.031.227.227,2.87,2.869.154.155-.233.562.471.2-5.933,13.463,7.046-.519,4.341,5.549.676-1.533,3.866-8.772,4.542,10.3,1.031-1.319,3.312-4.229,7.049.521-6.095-13.824,2.526-2.523.154-.155.56.233.56-1.353.143-.143-.058-.058.123-.3,1.553-3.75.081-.2h.61v-1.473l.076-.179-.076-.032Zm-21.117,25.23-2.938-3.753-4.785.353,4.606-10.453,3.277,1.357.2.082v.608h1.467l.186.077.033-.077h.616l1.272,2.887Zm17.779-3.4-4.785-.353-2.94,3.754-5.205-11.807h1.789l.232.56,1.356-.56h.2v-.083l.292-.122,3.754-1.553.2-.083.428.428.241-.242Zm1.334-21.83h-4l3.464,1.436-1.552,3.751-3.7-1.533,2.654,2.655-2.872,2.869-2.831-2.83,1.436,3.467-3.753,1.553-1.531-3.7v3.752h-4.062v-4l-1.436,3.467-3.751-1.555,1.531-3.7-2.652,2.651-2.869-2.87,2.83-2.831-3.465,1.435-1.555-3.752,3.7-1.531H825.63v-4.06h4l-3.466-1.437,1.553-3.75,3.7,1.53-2.652-2.651,2.869-2.872,2.832,2.831-1.436-3.466,3.752-1.554,1.533,3.7v-3.751h4.06v4l1.436-3.467,3.752,1.555-1.533,3.7,2.653-2.652,2.871,2.869-2.831,2.833,3.466-1.436,1.553,3.751-3.7,1.533H853.8Zm-14.213-10.325a7.66,7.66,0,1,0,7.66,7.66A7.659,7.659,0,0,0,839.587,1950.991Zm0,13.317a5.657,5.657,0,1,1,5.659-5.657A5.668,5.668,0,0,1,839.587,1964.308Z" transform="translate(-823.062 -1942)" fill="#333"/>
</svg>
